<?xml version="1.0" standalone="no"?>
<!DOCTYPE svg PUBLIC "-//W3C//DTD SVG 20010904//EN"
 "http://www.w3.org/TR/2001/REC-SVG-20010904/DTD/svg10.dtd">
<svg version="1.0" xmlns="http://www.w3.org/2000/svg"
 width="16.000000pt" height="16.000000pt" viewBox="0 0 16.000000 16.000000"
 preserveAspectRatio="xMidYMid meet">

<g transform="translate(0.000000,16.000000) scale(0.100000,-0.100000)"
fill="#000000" stroke="none">
<path d="M18 143 c25 -5 28 -13 10 -31 -13 -13 -3 -25 26 -35 6 -2 0 -13 -12
-25 -12 -12 -22 -28 -21 -34 0 -7 5 -3 11 10 13 27 44 29 66 4 10 -10 13 -12
8 -5 -6 9 -3 13 8 13 9 0 19 -7 22 -15 4 -8 11 -15 16 -15 7 0 6 5 -1 14 -6 7
-8 21 -5 31 8 20 -14 37 -39 29 -11 -3 -20 1 -24 13 -10 26 -45 52 -68 51 -17
-1 -17 -1 3 -5z"/>
</g>
</svg>
